<svg width="21" height="25" viewBox="0 0 21 25" fill="none" xmlns="http://www.w3.org/2000/svg">
<mask id="path-1-inside-1_401_1378" fill="white">
<path fill-rule="evenodd" clip-rule="evenodd" d="M1 0C0.447715 0 0 0.447715 0 1V23.8182V23.8182C0 24.2842 0.58548 24.3109 0.92991 23.9969L10.1632 15.5798C10.354 15.4058 10.646 15.4058 10.8368 15.5798L20.0701 23.9969C20.4145 24.3109 21 24.2842 21 23.8182V23.8182V1C21 0.447715 20.5523 0 20 0H1Z"/>
</mask>
<path fill-rule="evenodd" clip-rule="evenodd" d="M1 0C0.447715 0 0 0.447715 0 1V23.8182V23.8182C0 24.2842 0.58548 24.3109 0.92991 23.9969L10.1632 15.5798C10.354 15.4058 10.646 15.4058 10.8368 15.5798L20.0701 23.9969C20.4145 24.3109 21 24.2842 21 23.8182V23.8182V1C21 0.447715 20.5523 0 20 0H1Z" fill="white"/>
<path d="M10.1632 15.5798L10.8368 16.3188L10.8368 16.3188L10.1632 15.5798ZM10.8368 15.5798L11.5105 14.8408L11.5105 14.8408L10.8368 15.5798ZM20.0701 23.9969L19.3964 24.7359L20.0701 23.9969ZM0.92991 23.9969L1.6036 24.7359L0.92991 23.9969ZM1 1V1V-1C-0.104569 -1 -1 -0.10457 -1 1H1ZM1 23.8182V1H-1V23.8182H1ZM1.6036 24.7359L10.8368 16.3188L9.48947 14.8408L0.25622 23.2579L1.6036 24.7359ZM10.8368 16.3188C10.646 16.4928 10.354 16.4928 10.1632 16.3188L11.5105 14.8408C10.938 14.3188 10.062 14.3188 9.48946 14.8408L10.8368 16.3188ZM10.1632 16.3188L19.3964 24.7359L20.7438 23.2579L11.5105 14.8408L10.1632 16.3188ZM20 1V23.8182H22V1H20ZM20 1V1H22C22 -0.10457 21.1046 -1 20 -1V1ZM1 1H20V-1H1V1ZM19.3964 24.7359C19.7664 25.0732 20.2887 25.2601 20.7985 25.191C21.0653 25.1548 21.3765 25.0392 21.6264 24.7774C21.8875 24.504 22 24.1563 22 23.8182H20C20 23.7131 20.0394 23.5435 20.1798 23.3963C20.3093 23.2608 20.4525 23.2196 20.53 23.2091C20.6609 23.1914 20.7182 23.2346 20.7438 23.2579L19.3964 24.7359ZM-1 23.8182C-1 24.1563 -0.887457 24.504 -0.626432 24.7774C-0.376472 25.0392 -0.0653156 25.1548 0.20154 25.191C0.711327 25.2601 1.23363 25.0732 1.6036 24.7359L0.25622 23.2579C0.281764 23.2346 0.339109 23.1914 0.470048 23.2091C0.54748 23.2196 0.690739 23.2608 0.820158 23.3963C0.960642 23.5435 1 23.7131 1 23.8182H-1Z" fill="none" mask="url(#path-1-inside-1_401_1378)"/>
</svg>
